<?xml version="1.0" encoding="UTF-8" standalone="no"?>
<svg
   xmlns:dc="http://purl.org/dc/elements/1.1/"
   xmlns:cc="http://creativecommons.org/ns#"
   xmlns:rdf="http://www.w3.org/1999/02/22-rdf-syntax-ns#"
   xmlns:svg="http://www.w3.org/2000/svg"
   xmlns="http://www.w3.org/2000/svg"
   xmlns:sodipodi="http://sodipodi.sourceforge.net/DTD/sodipodi-0.dtd"
   xmlns:inkscape="http://www.inkscape.org/namespaces/inkscape"
   width="666.87457mm"
   height="91.113998mm"
   viewBox="0 0 666.87458 91.113999"
   version="1.1"
   id="svg8"
   inkscape:version="1.0.1 (c497b03c, 2020-09-10)"
   sodipodi:docname="oinkcloud.svg">
  <defs
     id="defs2" />
  <sodipodi:namedview
     id="base"
     pagecolor="#ffffff"
     bordercolor="#666666"
     borderopacity="1.0"
     inkscape:pageopacity="0.0"
     inkscape:pageshadow="2"
     inkscape:zoom="0.32842761"
     inkscape:cx="972.97528"
     inkscape:cy="127.74186"
     inkscape:document-units="mm"
     inkscape:current-layer="layer1"
     showgrid="false"
     showborder="false"
     inkscape:pagecheckerboard="false"
     inkscape:object-nodes="true"
     inkscape:snap-bbox="true"
     inkscape:bbox-nodes="true"
     inkscape:object-paths="false"
     inkscape:window-width="2358"
     inkscape:window-height="1287"
     inkscape:window-x="193"
     inkscape:window-y="25"
     inkscape:window-maximized="0"
     inkscape:measure-start="1263.33,-136.637"
     inkscape:measure-end="1263.33,22.3395"
     inkscape:snap-bbox-edge-midpoints="false"
     inkscape:bbox-paths="false"
     inkscape:snap-nodes="true"
     inkscape:snap-bbox-midpoints="true"
     inkscape:document-rotation="0" />
  <metadata
     id="metadata5">
    <rdf:RDF>
      <cc:Work
         rdf:about="">
        <dc:format>image/svg+xml</dc:format>
        <dc:type
           rdf:resource="http://purl.org/dc/dcmitype/StillImage" />
        <dc:title></dc:title>
      </cc:Work>
    </rdf:RDF>
  </metadata>
  <g
     inkscape:label="Layer 1"
     inkscape:groupmode="layer"
     id="layer1"
     transform="translate(1517.5858,-2012.4178)">
    <g
       id="g4509"
       transform="matrix(0.26458333,0,0,-0.26458333,-58.84541,369.22808)" />
    <g
       transform="matrix(0,-0.26458333,-0.26458333,0,991.68397,431.93434)"
       id="g4533" />
    <g
       transform="matrix(0.26458333,0,0,-0.26458333,287.8792,634.44729)"
       id="g5868" />
    <g
       id="g5878"
       transform="translate(681.86442,23.396595)" />
    <g
       id="g5888"
       transform="matrix(-0.26458333,0,0,-0.26458333,1400.2471,738.01159)" />
    <g
       transform="matrix(-0.26458333,0,0,-0.26458333,1401.1149,634.4473)"
       id="g5894" />
    <g
       id="g5918"
       transform="matrix(-0.26458333,0,0,0.26458333,1401.1149,-234.26389)" />
    <g
       transform="rotate(180,503.56481,188.3934)"
       id="g5928" />
    <g
       transform="matrix(0.26458333,0,0,0.26458333,288.74701,-337.82819)"
       id="g5938" />
    <g
       id="g5944"
       transform="matrix(0.26458333,0,0,0.26458333,287.87921,-234.26389)" />
    <g
       transform="matrix(0.26458333,0,0,-0.26458333,357.80461,713.55082)"
       id="g5976" />
    <g
       transform="matrix(-0.26458333,0,0,-0.26458333,1470.1725,737.94012)"
       id="g5986" />
    <g
       id="g6004"
       transform="matrix(0.26458333,0,0,-0.26458333,406.50462,713.55081)" />
    <g
       transform="translate(776.01467,109.67914)"
       id="g6028" />
    <g
       transform="matrix(0.26458333,0,0,-0.26458333,382.02945,799.90483)"
       id="g6034" />
    <g
       transform="matrix(-0.26458333,0,0,-0.26458333,1494.3973,824.29413)"
       id="g6046" />
    <g
       id="g6052"
       transform="matrix(-0.26458333,0,0,-0.26458333,1495.2651,799.90485)" />
    <g
       id="g6110"
       transform="matrix(0.26458333,0,0,-0.26458333,161.94752,796.65892)" />
    <g
       transform="matrix(0,-0.26458333,-0.26458333,0,1212.4769,859.36517)"
       id="g6136" />
    <g
       transform="matrix(0.26458333,0,0,-0.26458333,616.84102,888.70978)"
       id="g6422" />
    <g
       transform="matrix(-0.26458333,0,0,0.26458333,1681.3767,-138.35218)"
       id="g6446" />
    <g
       id="g6452"
       transform="matrix(-0.26458333,0,0,0.26458333,1632.6768,-138.35217)" />
    <g
       id="g6592"
       transform="translate(1114.44,202.90197)" />
    <g
       id="g6602"
       transform="matrix(-0.26458333,0,0,-0.26458333,1832.8225,917.51698)" />
    <g
       transform="rotate(180,719.8526,278.14621)"
       id="g6620" />
    <g
       transform="matrix(0.26458333,0,0,0.26458333,721.32252,-158.32258)"
       id="g6630" />
    <g
       id="g6654"
       transform="matrix(0,0.26458333,0.26458333,0,926.87397,-154.05627)" />
    <g
       id="g6670"
       transform="matrix(0,-0.26458333,0.26458333,0,926.87401,962.06768)" />
    <g
       id="g6686"
       transform="matrix(0,0.26458333,0.26458333,0,926.87401,-190.40637)" />
    <g
       transform="matrix(0,0.26458333,0.26458333,0,1002.5351,-152.86476)"
       id="g6706" />
    <g
       transform="matrix(0,-0.26458333,0.26458333,0,1002.5351,963.25918)"
       id="g6722" />
    <g
       transform="matrix(0,0.26458333,0.26458333,0,1002.5351,-189.21486)"
       id="g6738" />
    <g
       id="g6876"
       transform="matrix(0.26458333,0,0,-0.26458333,1366.6906,907.66668)" />
    <g
       id="g6900"
       transform="matrix(-0.26458333,0,0,0.26458333,2431.2262,-119.39531)" />
    <g
       transform="matrix(-0.26458333,0,0,0.26458333,2382.5263,-119.3953)"
       id="g6906" />
    <g
       transform="matrix(0.26458333,0,0,-0.26458333,1149.1138,822.8448)"
       id="g7042" />
    <g
       id="g7052"
       transform="translate(1543.099,211.79411)" />
    <g
       id="g7068"
       transform="matrix(-0.26458333,0,0,0.26458333,2262.3494,-45.866393)" />
    <g
       transform="rotate(180,934.18211,282.59215)"
       id="g7078" />
    <g
       transform="matrix(0.26458333,0,0,0.26458333,1149.9816,-149.43068)"
       id="g7088" />
    <g
       id="g7094"
       transform="matrix(0.26458333,0,0,0.26458333,1149.1138,-45.866393)" />
    <g
       id="g7120"
       transform="matrix(0.26458333,0,0,-0.26458333,1234.6303,824.52986)" />
    <g
       transform="translate(1628.6155,213.47917)"
       id="g7130" />
    <g
       transform="matrix(-0.26458333,0,0,0.26458333,2347.866,-44.181333)"
       id="g7146" />
    <g
       id="g7156"
       transform="rotate(180,976.94039,283.43468)" />
    <g
       id="g7166"
       transform="matrix(0.26458333,0,0,0.26458333,1235.4981,-147.74563)" />
    <g
       transform="matrix(0.26458333,0,0,0.26458333,1234.6303,-44.181333)"
       id="g7172" />
    <g
       id="g2907"
       transform="matrix(0,-0.26458333,-0.26458333,0,923.19832,1707.3493)" />
    <g
       id="g3227"
       transform="matrix(0,-0.26458333,-0.26458333,0,1574.9025,1695.6253)" />
    <g
       id="g3243"
       transform="matrix(0,0.26458333,-0.26458333,0,1574.9025,543.15134)" />
    <g
       id="g3263"
       transform="translate(1008.3952,936.87456)" />
    <g
       id="g3273"
       transform="matrix(-0.26458333,0,0,-0.26458333,1726.7777,1651.4896)" />
    <g
       transform="rotate(180,666.83022,645.1325)"
       id="g3291" />
    <g
       transform="matrix(0.26458333,0,0,0.26458333,615.27778,575.65001)"
       id="g3301" />
    <g
       transform="translate(-123.52099,558.7205)"
       id="g3885">
      <g
         id="g3873"
         transform="matrix(-0.26458333,0,0,0.26458333,1307.4419,-152.11581)" />
      <g
         transform="matrix(-0.26458333,0,0,-0.26458333,1307.4419,874.94661)"
         id="g3877" />
    </g>
    <g
       id="g3931"
       transform="matrix(-0.26458333,0,0,0.26458333,1232.6212,406.60444)" />
    <g
       transform="matrix(-0.26458333,0,0,-0.26458333,1232.6212,1433.6674)"
       id="g3935" />
    <g
       id="g5598"
       transform="matrix(1,0,0,-1,299.86153,1582.6173)" />
    <g
       id="g5604"
       transform="matrix(0.26458333,0,0,0.26458333,-94.123687,892.39165)" />
    <g
       id="g5616"
       transform="matrix(-0.26458333,0,0,0.26458333,1018.2442,868.00235)" />
    <g
       transform="matrix(-0.26458333,0,0,0.26458333,1019.112,892.39163)"
       id="g5622" />
    <g
       transform="matrix(0,0.26458333,-0.26458333,0,857.76342,937.59946)"
       id="g5687" />
    <g
       transform="matrix(0,-0.26458333,-0.26458333,0,857.76338,2053.7233)"
       id="g5703" />
    <g
       transform="matrix(0,0.26458333,-0.26458333,0,857.76338,901.24934)"
       id="g5719" />
    <g
       transform="matrix(0,0.26458333,-0.26458333,0,1347.944,785.30521)"
       id="g5771" />
    <g
       id="g5791"
       transform="matrix(0,-0.26458333,0.26458333,0,361.7076,1937.7788)" />
    <g
       transform="matrix(0.26458333,0,0,0.26458333,298.28205,772.03446)"
       id="g5803" />
    <g
       transform="rotate(180,1336.161,1077.7319)"
       id="g7848" />
    <g
       id="g7858"
       transform="translate(-66.514001,51.709981)" />
    <g
       transform="rotate(180,1340.9235,1082.4945)"
       id="g7868" />
    <g
       id="g7878"
       transform="translate(-56.989001,61.235181)" />
    <g
       transform="rotate(180,1345.686,1087.2571)"
       id="g7888" />
    <g
       id="g7898"
       transform="matrix(1,0,0,-1,-27.338881,2155.4638)" />
    <g
       transform="matrix(-1,0,0,1,2711.4971,51.710061)"
       id="g7908" />
    <g
       id="g7918"
       transform="matrix(1,0,0,-1,-36.863891,2164.989)" />
    <g
       transform="matrix(-1,0,0,1,2701.9721,61.235261)"
       id="g7928" />
    <g
       id="g7938"
       transform="matrix(1,0,0,-1,-46.388891,2174.5142)" />
    <g
       id="g7944"
       transform="matrix(-0.26458333,0,0,0.26458333,1879.1095,565.13733)" />
    <g
       transform="matrix(-0.26458333,0,0,0.26458333,1830.4094,565.13733)"
       id="g7948" />
    <g
       transform="translate(1661.1683,762.24233)"
       id="g8165" />
    <g
       transform="matrix(-0.26458333,0,0,-0.26458333,2370.0258,1476.8573)"
       id="g8175" />
    <g
       id="g8187"
       transform="matrix(0.26458333,0,0,0.26458333,1268.0508,401.01778)" />
    <g
       id="g8197"
       transform="matrix(0.26458333,0,0,0.26458333,1307.2257,322.60477)" />
    <g
       transform="matrix(-0.26458333,0,0,-0.26458333,2379.5508,1486.3826)"
       id="g8207" />
    <g
       id="g8217"
       transform="matrix(-0.26458333,0,0,0.26458333,2370.0257,401.01778)" />
    <g
       transform="matrix(0.26458333,0,0,-0.26458333,1307.2256,1555.2703)"
       id="g8227" />
    <g
       id="g8237"
       transform="matrix(-0.26458333,0,0,0.26458333,2379.5507,391.49248)" />
    <path
       id="path4241"
       style="opacity:1;fill:#0094ff;fill-opacity:1;fill-rule:evenodd;stroke:none;stroke-width:1.62247;stroke-linecap:round;stroke-linejoin:round;stroke-miterlimit:4;stroke-dasharray:none;stroke-dashoffset:0;stroke-opacity:1;paint-order:normal"
       d="m -1465.7109,2097.1814 h -3.175 v -78.413 h 3.175 z m -24.35,3.175 v 3.175 h -3.175 v -3.175 z m -3.1749,3.175 v -3.175 h -18 v 3.175 z m 21.1749,0 v -3.175 h -18 v 3.175 z m -42.3499,-6.3502 v 3.175 h 3.175 a 3.175,3.175 0 0 1 -3.175,-3.175 z m 0,3.1752 v 3.175 h 3.175 v -3.175 z m -3.175,-3.1752 v 3.175 h 3.175 v -3.175 z m 0,3.1752 a 3.175,3.175 0 0 0 3.175,3.175 v -3.175 z m 48.7,-3.1751 v 3.175 h -3.175 a 3.175,3.175 0 0 0 3.175,-3.175 z m 0,3.1751 v 3.175 h -3.175 v -3.175 z m 3.175,-3.1751 v 3.175 h -3.175 v -3.175 z m 0,3.1751 a 3.175,3.175 0 0 1 -3.175,3.175 v -3.175 z m -48.7,-3.1751 h -3.175 v -78.413 h 3.175 z m 21.175,-81.5882 v -3.175 h 3.175 v 3.175 z m 3.1749,-3.175 v 3.175 h 18 v -3.175 z m -21.1749,0 v 3.175 h 18 v -3.175 z m 42.3498,6.3503 v -3.175 h -3.175 a 3.175,3.175 0 0 1 3.175,3.175 z m 10e-5,-3.1751 v -3.175 h -3.175 v 3.175 z m 3.1749,3.1751 v -3.175 h -3.175 v 3.175 z m 10e-5,-3.1751 a 3.175,3.175 0 0 0 -3.175,-3.175 v 3.175 z m -48.6998,3.1751 v -3.175 h 3.175 a 3.175,3.175 0 0 0 -3.175,3.175 z m -1e-4,-3.1752 v -3.175 h 3.175 v 3.175 z m -3.1749,3.1752 v -3.175 h 3.175 v 3.175 z m -10e-5,-3.1752 a 3.175,3.175 0 0 1 3.175,-3.175 v 3.175 z"
       inkscape:connector-curvature="0" />
    <g
       transform="translate(-1844.2837,1889.6918)"
       id="g4263"
       style="fill:#0094ff;fill-opacity:1">
      <g
         transform="matrix(0.26458333,0,0,-0.26458333,-127.10748,602.63856)"
         id="g4243"
         style="fill:#0094ff;fill-opacity:1" />
      <g
         id="g4245"
         transform="translate(266.87774,-8.412125)"
         style="fill:#0094ff;fill-opacity:1" />
      <g
         id="g4247"
         transform="matrix(-0.26458333,0,0,-0.26458333,985.26039,706.20286)"
         style="fill:#0094ff;fill-opacity:1" />
      <g
         transform="matrix(-0.26458333,0,0,-0.26458333,986.1282,602.63857)"
         id="g4249"
         style="fill:#0094ff;fill-opacity:1" />
      <g
         id="g4252"
         transform="matrix(-0.26458333,0,0,0.26458333,986.12819,-266.07263)"
         style="fill:#0094ff;fill-opacity:1" />
      <g
         transform="rotate(180,296.07148,172.48903)"
         id="g4254"
         style="fill:#0094ff;fill-opacity:1" />
      <g
         transform="matrix(0.26458333,0,0,0.26458333,-126.23967,-369.63692)"
         id="g4256"
         style="fill:#0094ff;fill-opacity:1" />
      <g
         id="g4258"
         transform="matrix(0.26458333,0,0,0.26458333,-127.10747,-266.07263)"
         style="fill:#0094ff;fill-opacity:1" />
      <path
         id="path4261"
         style="opacity:1;fill:#0094ff;fill-opacity:1;fill-rule:evenodd;stroke:none;stroke-width:1.62247;stroke-linecap:round;stroke-linejoin:round;stroke-miterlimit:4;stroke-dasharray:none;stroke-dashoffset:0;stroke-opacity:1;paint-order:normal"
         d="m 403.57291,203.48933 h 3.175 v 4 h -3.175 z m 48.69992,0 h 3.175 v 4 h -3.175 z m -21.17497,4.00014 v 3.175 h -3.175 v -3.175 z m 3.175,3.175 h -3.175 v -3.175 a 3.175,3.175 0 0 0 3.175,3.175 z m -9.525,0 h 3.175 v -3.175 a 3.175,3.175 0 0 1 -3.175,3.175 z m 6.35,0 v 3.175 h -3.175 v -3.175 z m -3.17501,3.17501 v -3.175 h -18 v 3.175 z m 21.17502,0 v -3.175 h -18 v 3.175 z M 405.1604,201.90183 a 1.5875,1.5875 0 0 1 1.5875,1.5875 h -1.5875 z m 0,0 a 1.5875,1.5875 0 0 0 -1.5875,1.5875 h 1.5875 z m 1.58749,5.5875 v 3.175 h 3.175 a 3.175,3.175 0 0 1 -3.175,-3.175 z m -3e-5,3.17513 v 3.175 h 3.175 v -3.175 z m -3.17497,-3.17513 v 3.175 h 3.175 v -3.175 z m -3e-5,3.17513 a 3.175,3.175 0 0 0 3.175,3.175 v -3.175 z m 48.69995,-3.17512 v 3.175 h -3.175 a 3.175,3.175 0 0 0 3.175,-3.175 z m 3e-5,3.17513 v 3.175 h -3.175 v -3.175 z m 3.17497,-3.17513 v 3.175 h -3.175 v -3.175 z m 3e-5,3.17513 a 3.175,3.175 0 0 1 -3.175,3.175 v -3.175 z m -1.58752,-8.76264 a 1.5875,1.5875 0 0 0 -1.5875,1.5875 h 1.5875 z m 0,0 a 1.5875,1.5875 0 0 1 1.5875,1.5875 h -1.5875 z m 1.58753,-68.82522 h -3.175 v -4 h 3.175 z m -48.69996,-10e-6 h -3.175 v -4 h 3.175 z m 21.17497,-4.00013 v -3.175 h 3.175 v 3.175 z m 3.17501,78.413 h -3.175 v -78.413 h 3.175 z m -6.35001,-81.588 h 3.175 v 3.175 a 3.175,3.175 0 0 0 -3.175,-3.175 z m 9.525,0 h -3.175 v 3.175 a 3.175,3.175 0 0 1 3.175,-3.175 z m -6.35,0 v -3.175 h 3.175 v 3.175 z m 3.17501,-3.17501 v 3.175 h 18 v -3.175 z m -21.17502,0 v 3.175 h 18 v -3.175 z m 43.93748,11.93765 a 1.5875,1.5875 0 0 1 -1.5875,-1.5875 h 1.5875 z m 0,0 a 1.5875,1.5875 0 0 0 1.5875,-1.5875 h -1.5875 z m -1.5875,-5.5875 v -3.175 h -3.175 a 3.175,3.175 0 0 1 3.175,3.175 z m 3e-5,-3.17513 v -3.175 h -3.175 v 3.175 z m 3.17497,3.17513 v -3.175 h -3.175 v 3.175 z m 3e-5,-3.17513 a 3.175,3.175 0 0 0 -3.175,-3.175 v 3.175 z m -48.69997,3.17511 v -3.175 h 3.175 a 3.175,3.175 0 0 0 -3.175,3.175 z m -3e-5,-3.17512 v -3.17501 h 3.175 v 3.17501 z m -3.17497,3.17512 v -3.175 h 3.175 v 3.175 z m -3e-5,-3.17512 a 3.175,3.175 0 0 1 3.175,-3.17501 v 3.17501 z m 1.58753,8.76263 a 1.5875,1.5875 0 0 0 1.5875,-1.5875 h -1.5875 z m 0,0 a 1.5875,1.5875 0 0 1 -1.5875,-1.5875 h 1.5875 z"
         inkscape:connector-curvature="0" />
    </g>
    <g
       transform="translate(-1839.2838,1889.7277)"
       id="g4275"
       style="fill:#0094ff;fill-opacity:1">
      <g
         transform="translate(338.75274,-8.44786)"
         id="g4265"
         style="fill:#0094ff;fill-opacity:1" />
      <g
         transform="matrix(0.26458333,0,0,-0.26458333,-55.232478,681.77782)"
         id="g4267"
         style="fill:#0094ff;fill-opacity:1" />
      <g
         transform="matrix(-0.26458333,0,0,-0.26458333,1057.1354,706.16712)"
         id="g4269"
         style="fill:#0094ff;fill-opacity:1" />
      <g
         id="g4271"
         transform="matrix(-0.26458333,0,0,-0.26458333,1058.0032,681.77784)"
         style="fill:#0094ff;fill-opacity:1" />
      <path
         id="path4273"
         transform="scale(-1)"
         style="opacity:1;fill:#0094ff;fill-opacity:1;fill-rule:evenodd;stroke:none;stroke-width:1.62247;stroke-linecap:round;stroke-linejoin:round;stroke-miterlimit:4;stroke-dasharray:none;stroke-dashoffset:0;stroke-opacity:1;paint-order:normal"
         d="m -478.62289,-212.21587 h 3.175 v 83.17501 h -3.175 z m -21.17497,86.35014 v 3.175 h -3.175 v -3.175 z m -3.17498,3.175 v -3.175 h -18 v 3.175 z m 21.17499,0 v -3.175 h -18 v 3.175 z m -43.93748,-91.11265 a 1.5875,1.5875 0 0 1 1.5875,1.5875 h -1.5875 z m 0,0 a 1.5875,1.5875 0 0 0 -1.5875,1.5875 h 1.5875 z m 1.58749,84.76251 v 3.175 h 3.175 a 3.175,3.175 0 0 1 -3.175,-3.175 z m -3e-5,3.17513 v 3.175 h 3.175 v -3.175 z m -3.17497,-3.17513 v 3.175 h 3.175 v -3.175 z m -3e-5,3.17513 a 3.175,3.175 0 0 0 3.175,3.175 v -3.175 z m -1e-5,-86.35014 h 3.175 v 83.175 h -3.175 z m 50.28749,-1.58748 a 1.5875,1.5875 0 0 0 -1.5875,1.5875 h 1.5875 z m 0,0 a 1.5875,1.5875 0 0 1 1.5875,1.5875 h -1.5875 z m -1.5875,84.7625 v 3.175 h -3.175 a 3.175,3.175 0 0 0 3.175,-3.175 z m 3e-5,3.17513 v 3.175 h -3.175 v -3.175 z m 3.17497,-3.17513 v 3.175 h -3.175 v -3.175 z m 3e-5,3.17513 a 3.175,3.175 0 0 1 -3.175,3.175 v -3.175 z"
         inkscape:connector-curvature="0" />
    </g>
    <path
       inkscape:connector-curvature="0"
       d="m -1238.2609,2072.2623 h 3.175 l -10e-5,28.094 h -3.175 z m 10e-5,-56.669 h 3.175 l -10e-5,28.094 h -3.175 z m -10e-5,56.669 v -3.175 h 3.175 v 3.175 z m 0,-25.4 v -3.1751 h 3.175 v 3.1751 z m -45.5252,15.875 v -3.1751 h 3.175 a 3.175,3.175 0 0 0 -3.175,3.1751 z m 0,-9.5253 v 3.175 h 3.175 a 3.175,3.175 0 0 1 -3.175,-3.175 z m 0,3.1756 20.1252,-3e-4 v 3.175 h -20.1252 z m 45.5252,9.5247 a 3.175,3.175 0 0 1 3.175,3.175 h -3.175 z m -22.225,-12.7 v -3.175 h 3.175 v 3.175 z m 0,12.7 v -3.175 h 3.175 v 3.175 z m 9.525,3.175 v -3.175 h 3.175 v 3.175 z m 3.175,0 v -3.175 h 3.175 v 3.175 z m 0,-19.05 v -3.175 h 3.175 v 3.175 z m -3.175,0 v -3.175 h 3.175 v 3.175 z m 14.2876,53.4945 a 1.5875,1.5875 0 0 1 -1.5875,-1.5875 h 1.5875 z m 0,0 a 1.5875,1.5875 0 0 0 1.5875,-1.5875 h -1.5875 z m -1.5875,-3.1755 v 1.588 h 3.175 v -1.588 z m 1.5875,-87.9385 a 1.5875,1.5875 0 0 0 -1.5875,1.5875 h 1.5875 z m 0,0 a 1.5875,1.5875 0 0 1 1.5875,1.5875 h -1.5875 z m -1.5875,3.1754 v -1.588 h 3.175 v 1.588 z m -3.1751,53.4941 v -3.1751 h 3.175 v 3.1751 z m 0,-19.0501 v -3.175 h 3.175 v 3.175 z m -3.175,0 v -3.175 h 3.175 v 3.175 z m 0,19.0501 v -3.1751 h 3.175 v 3.1751 z m 9.525,-22.225 a 3.175,3.175 0 0 1 -3.175,3.175 v -3.175 z m -22.225,9.525 v 3.175 h -3.175 v -3.175 z m -3.175,0 v 3.175 h -3.175 v -3.175 z m 0,6.35 v -3.1751 h -3.175 a 3.175,3.175 0 0 1 3.175,3.1751 z m 0,-9.525 v 3.175 h -3.175 a 3.175,3.175 0 0 0 3.175,-3.175 z m 3.175,15.875 a 3.175,3.175 0 0 1 -3.175,-3.1751 h 3.175 z m 0,-6.35 v -3.1751 h -3.175 v 3.1751 z m 0,6.35 v -3.1751 h 3.175 v 3.1751 z m 0,-6.35 v 3.175 h 3.175 a 3.175,3.175 0 0 1 -3.175,-3.175 z m 0,-15.875 a 3.175,3.175 0 0 0 -3.175,3.175 h 3.175 z m 0,6.35 v 3.175 h -3.175 v -3.175 z m 0,-6.35 v 3.175 h 3.175 v -3.175 z m 3.175,22.225 v -3.1751 h 3.175 v 3.1751 z m 0,-19.0501 v -3.175 h 3.175 v 3.175 z m -3.175,3.1751 v -3.1751 h 3.175 a 3.175,3.175 0 0 0 -3.175,3.1751 z m 19.05,19.05 v -3.175 h -3.175 a 3.175,3.175 0 0 1 3.175,3.175 z m 0,-28.575 v 3.175 h -3.175 a 3.175,3.175 0 0 0 3.175,-3.175 z m -48.7002,15.8747 v -3.175 h 3.175 v 3.175 z m 0,-43.9684 h 3.175 v 40.7939 h -3.175 v -40.7939 m 0,43.9684 h 3.175 v 40.794 h -3.175 v -40.794 m 1.5875,43.9696 a 1.5875,1.5875 0 0 1 -1.5875,-1.5875 h 1.5875 z m 0,0 a 1.5875,1.5875 0 0 0 1.5875,-1.5875 h -1.5875 z m -1.5875,-3.1756 v 1.5881 h 3.175 v -1.5881 z m 1.5875,-87.9379 a 1.5875,1.5875 0 0 0 -1.5875,1.5875 h 1.5875 z m 0,0 a 1.5875,1.5875 0 0 1 1.5875,1.5875 h -1.5875 z m -1.5875,3.1755 v -1.5881 h 3.175 v 1.5881 z"
       style="fill:#0094ff;fill-opacity:1;fill-rule:evenodd;stroke:none;stroke-width:0.264583px;stroke-linecap:butt;stroke-linejoin:miter;stroke-opacity:1"
       id="path4277" />
    <g
       style="fill:#0094ff;fill-opacity:1"
       transform="matrix(-0.26458333,0,0,0.26458333,-599.35561,1544.4434)"
       id="g4281">
      <path
         id="path4279"
         style="opacity:0.99;fill:#0094ff;fill-opacity:1;fill-rule:nonzero;stroke:none;stroke-width:10;stroke-linecap:round;stroke-linejoin:round;stroke-miterlimit:4;stroke-dasharray:none;stroke-dashoffset:0;stroke-opacity:0.992157;paint-order:normal"
         d="m 2011.7211,1768.7224 a 6,6 0 0 1 6,6 h -6 z m 0,0 a 6,6 0 0 0 -6,6 h 6 z m 6,12.0019 v -6.0019 h -12 v 6.0019 z m 0,12.0001 v -12 h -12 v 12 z m -11.9998,320.3648 v -12 h -172.063 v 12 z m -172.0631,-12.0004 v 12 h -6 v -12 z m -12,6.0002 a 6,6 0 0 1 6,-6 v 6 z m 0,0 a 6,6 0 0 0 6,6 v -6 z m 184.0629,-18.0005 v 12 h -12 a 12,12 0 0 0 12,-12 z m 12,0 v 12 h -12 v -12 z m 10e-5,12.0003 a 12,12 0 0 1 -12,12 v -12 z m 0,-182.9786 h -12 v 170.9783 h 12 z m -10e-5,0 v -12 h -12 v 12 z m 10e-5,-12 h -12 v -113.3858 h 12 z"
         inkscape:connector-curvature="0" />
    </g>
    <path
       id="path4283"
       style="opacity:1;fill:#0094ff;fill-opacity:1;fill-rule:evenodd;stroke:none;stroke-width:1.50212;stroke-linecap:round;stroke-linejoin:round;stroke-miterlimit:4;stroke-dasharray:none;stroke-dashoffset:0;stroke-opacity:1;paint-order:normal"
       d="m -1206.911,2012.4181 v 3.175 h 45.525 v -3.175 z m 45.525,3.175 v -3.175 h 1.5875 v 3.175 z m 3.175,-1.5875 a 1.5875,1.5875 0 0 1 -1.5875,1.5875 v -1.5875 z m 0,0 a 1.5875,1.5875 0 0 0 -1.5875,-1.5875 v 1.5875 z m -48.7,4.7626 v -3.175 h 3.175 a 3.175,3.175 0 0 0 -3.175,3.175 z m -3.175,0 v -3.175 h 3.175 v 3.175 z m 0,-3.1751 a 3.175,3.175 0 0 1 3.175,-3.175 v 3.175 z m 3.175,87.9383 v -3.175 h 45.525 v 3.175 z m 45.525,-3.175 v 3.175 h 1.5875 v -3.175 z m 3.175,1.5874 a 1.5875,1.5875 0 0 0 -1.5875,-1.5875 v 1.5875 z m 0,0 a 1.5875,1.5875 0 0 1 -1.5875,1.5875 v -1.5875 z m -48.7,-4.7625 v 3.175 h 3.175 a 3.175,3.175 0 0 1 -3.175,-3.175 z m -3.175,0 v 3.175 h 3.175 v -3.175 z m 0,3.1751 a 3.175,3.175 0 0 0 3.175,3.175 v -3.175 z m 0,-48.4131 h 3.175 v 45.238 h -3.175 z m 0,0 v -3.175 h 3.175 v 3.175 z m 0,-3.1751 h 3.175 v -30 h -3.175 z"
       inkscape:connector-curvature="0" />
    <path
       id="path4285"
       style="opacity:1;fill:#0094ff;fill-opacity:1;fill-rule:evenodd;stroke:none;stroke-width:1.62247;stroke-linecap:round;stroke-linejoin:round;stroke-miterlimit:4;stroke-dasharray:none;stroke-dashoffset:0;stroke-opacity:1;paint-order:normal"
       d="m -1004.4613,2097.1814 h -3.175 v -78.413 h 3.175 z m -24.35,3.175 v 3.175 h -3.175 v -3.175 z m -3.1749,3.175 v -3.175 h -18 v 3.175 z m 21.1749,0 v -3.175 h -18 v 3.175 z m -42.3499,-6.3502 v 3.175 h 3.175 a 3.175,3.175 0 0 1 -3.175,-3.175 z m 0,3.1752 v 3.175 h 3.175 v -3.175 z m -3.175,-3.1752 v 3.175 h 3.175 v -3.175 z m 0,3.1752 a 3.175,3.175 0 0 0 3.175,3.175 v -3.175 z m 48.7,-3.1751 v 3.175 h -3.175 a 3.175,3.175 0 0 0 3.175,-3.175 z m 0,3.1751 v 3.175 h -3.175 v -3.175 z m 3.175,-3.1751 v 3.175 h -3.175 v -3.175 z m 0,3.1751 a 3.175,3.175 0 0 1 -3.175,3.175 v -3.175 z m -48.7,-3.1751 h -3.175 v -78.413 h 3.175 z m 21.175,-81.5882 v -3.175 h 3.175 v 3.175 z m 3.1749,-3.175 v 3.175 h 18 v -3.175 z m -21.1749,0 v 3.175 h 18 v -3.175 z m 42.3498,6.3503 v -3.175 h -3.175 a 3.175,3.175 0 0 1 3.175,3.175 z m 10e-5,-3.1751 v -3.175 h -3.175 v 3.175 z m 3.1749,3.1751 v -3.175 h -3.175 v 3.175 z m 10e-5,-3.1751 a 3.175,3.175 0 0 0 -3.175,-3.175 v 3.175 z m -48.6998,3.1751 v -3.175 h 3.175 a 3.175,3.175 0 0 0 -3.175,3.175 z m -10e-5,-3.1752 v -3.175 h 3.175 v 3.175 z m -3.1749,3.1752 v -3.175 h 3.175 v 3.175 z m -10e-5,-3.1752 a 3.175,3.175 0 0 1 3.175,-3.175 v 3.175 z"
       inkscape:connector-curvature="0" />
    <path
       inkscape:connector-curvature="0"
       d="m -976.28611,2014.0059 h -3.175 v 83.175 h 3.175 z m 21.175,86.3501 v 3.175 h 3.175 v -3.175 z m 3.175,3.1751 v -3.175 h 18 v 3.175 z m -21.175,0 v -3.175 h 18 v 3.175 z m 43.9375,-91.1127 a 1.5875,1.5875 0 0 0 -1.5875,1.5875 h 1.5875 z m 0,0 a 1.5875,1.5875 0 0 1 1.5875,1.5875 h -1.5875 z m -1.5875,84.7625 v 3.175 h -3.175 a 3.175,3.175 0 0 0 3.175,-3.175 z m 0,3.1751 v 3.175 h -3.175 v -3.175 z m 3.175,-3.1751 v 3.175 h -3.175 v -3.175 z m 0,3.1751 a 3.175,3.175 0 0 1 -3.175,3.175 v -3.175 z m 0,-86.3501 h -3.175 v 83.175 h 3.175 z m -50.2875,-1.5875 a 1.5875,1.5875 0 0 1 1.5875,1.5875 h -1.5875 z m 0,0 a 1.5875,1.5875 0 0 0 -1.5875,1.5875 h 1.5875 z m 1.5875,84.7625 v 3.175 h 3.175 a 3.175,3.175 0 0 1 -3.175,-3.175 z m 0,3.1751 v 3.175 h 3.175 v -3.175 z m -3.175,-3.1751 v 3.175 h 3.175 v -3.175 z m 0,3.1751 a 3.175,3.175 0 0 0 3.175,3.175 v -3.175 z"
       style="opacity:1;fill:#0094ff;fill-opacity:1;fill-rule:evenodd;stroke:none;stroke-width:1.62247;stroke-linecap:round;stroke-linejoin:round;stroke-miterlimit:4;stroke-dasharray:none;stroke-dashoffset:0;stroke-opacity:1;paint-order:normal"
       id="path4287" />
    <path
       inkscape:connector-curvature="0"
       d="m -896.23621,2100.3564 h 29.6498 v 3.175 l -29.6498,-10e-5 z m 10e-5,-87.9383 h 29.6498 v 3.1752 l -29.6498,-2e-4 z m 42.3498,15.8755 -10e-5,59.3624 h 3.175 l 10e-5,-59.3624 z m -10e-5,59.3624 v 3.175 h -3.175 a 3.175,3.175 0 0 0 3.175,-3.175 z m 10e-5,3.1751 v 3.175 h -3.175 v -3.175 z m 3.1749,-3.1751 v 3.175 h -3.175 v -3.175 z m 10e-5,3.1751 a 3.175,3.175 0 0 1 -3.175,3.175 v -3.175 z m -9.525,6.3502 v -3.1751 h 3.175 a 3.175,3.175 0 0 0 -3.175,3.1751 z m -10e-5,-3.1751 v -3.1751 h 3.175 v 3.1751 z m -3.1749,3.1751 v -3.1751 h 3.175 v 3.1751 z m -1e-4,-3.1751 a 3.175,3.175 0 0 1 3.175,-3.1751 v 3.1751 z m 0,3.1751 v 3.175 h -3.175 a 3.175,3.175 0 0 0 3.175,-3.175 z m 1e-4,3.1751 v 3.175 h -3.175 v -3.175 z m 3.1749,-3.1751 v 3.175 h -3.175 v -3.175 z m 10e-5,3.1751 a 3.175,3.175 0 0 1 -3.175,3.175 v -3.175 z m 6.35,-72.0629 v -3.175 h -3.175 a 3.175,3.175 0 0 1 3.175,3.175 z m 10e-5,-3.1751 v -3.175 h -3.175 v 3.175 z m 3.1749,3.1751 v -3.175 h -3.175 v 3.175 z m 10e-5,-3.1751 a 3.175,3.175 0 0 0 -3.175,-3.175 v 3.175 z m -9.525,-6.3501 v 3.175 h 3.175 a 3.175,3.175 0 0 1 -3.175,-3.175 z m -10e-5,3.1751 v 3.175 h 3.175 v -3.175 z m -3.1749,-3.1751 v 3.175 h 3.175 v -3.175 z m -10e-5,3.1751 a 3.175,3.175 0 0 0 3.175,3.175 v -3.175 z m -35.9998,75.2379 v 3.175 h 3.175 a 3.175,3.175 0 0 1 -3.175,-3.175 z m -10e-5,3.1751 v 3.175 h 3.175 v -3.175 z m -3.1749,-3.1751 v 3.175 h 3.175 v -3.175 z m -1e-4,3.1751 a 3.175,3.175 0 0 0 3.175,3.175 v -3.175 z m 3.1752,-3.1751 h -3.175 v -78.413 h 3.175 z m 35.9997,-78.413 v -3.1751 h -3.175 a 3.175,3.175 0 0 1 3.175,3.1751 z m 10e-5,-3.1751 v -3.1751 h -3.175 v 3.1751 z m 3.1749,3.1751 v -3.1751 h -3.175 v 3.1751 z m 10e-5,-3.1751 a 3.175,3.175 0 0 0 -3.175,-3.1751 v 3.1751 z m -39.1748,3.1751 v -3.1751 h 3.175 a 3.175,3.175 0 0 0 -3.175,3.1751 z m -10e-5,-3.1751 v -3.1751 h 3.175 v 3.1751 z m -3.1749,3.1751 v -3.1751 h 3.175 v 3.1751 z m -10e-5,-3.1751 a 3.175,3.175 0 0 1 3.175,-3.1751 v 3.1751 z"
       style="fill:#0094ff;fill-opacity:1;fill-rule:evenodd;stroke:none;stroke-width:0.264583px;stroke-linecap:butt;stroke-linejoin:miter;stroke-opacity:1"
       id="path4289" />
  </g>
</svg>
